<svg width="20" height="20" viewBox="0 0 20 20" fill="none" xmlns="http://www.w3.org/2000/svg">
<path d="M14.4083 3.45008L14.35 6.60839C14.3417 7.04172 14.6167 7.61674 14.9667 7.87507L17.0334 9.44172C18.3584 10.4417 18.1417 11.6667 16.5583 12.1667L13.8667 13.0084C13.4167 13.1501 12.9417 13.6417 12.825 14.1001L12.1833 16.5501C11.675 18.4834 10.4083 18.6751 9.35833 16.9751L7.89166 14.6001C7.62499 14.1667 6.99167 13.8417 6.49167 13.8667L3.70836 14.0084C1.71669 14.1084 1.15002 12.9584 2.45002 11.4417L4.1 9.52506C4.40834 9.16672 4.55 8.50007 4.40833 8.05007L3.56671 5.35839C3.07504 3.77506 3.95836 2.90007 5.53336 3.41674L7.99171 4.22507C8.40837 4.3584 9.03336 4.26673 9.38336 4.0084L11.95 2.15839C13.3334 1.15839 14.4417 1.74174 14.4083 3.45008Z" stroke="#4D4D4D" stroke-width="1.5" stroke-linecap="round" stroke-linejoin="round"/>
<path d="M18.2583 18.3333L15.7333 15.8083" stroke="#4D4D4D" stroke-width="1.5" stroke-linecap="round" stroke-linejoin="round"/>
</svg>
